<svg id="logo_white" data-name="logo_white" xmlns="http://www.w3.org/2000/svg" viewBox="0 0 187.71 81.44"><defs><style>.cls-4,.cls-6{fill:#fff}</style></defs><path d="M438.19 259.24l.56.91a.55.55 0 01-.11.72l-.81.69a.56.56 0 00-.18.56l.26 1.05a.56.56 0 01-.33.65l-1 .4a.55.55 0 00-.34.47l-.07 1.08a.54.54 0 01-.5.52l-1.06.07a.52.52 0 00-.46.34l-.4 1a.55.55 0 01-.63.33l-1-.27a.55.55 0 00-.55.18l-.67.83a.54.54 0 01-.71.12l-.89-.58a.55.55 0 00-.58 0l-.89.58a.54.54 0 01-.71-.12l-.67-.83a.55.55 0 00-.55-.18l-1 .27a.55.55 0 01-.63-.33l-.39-1a.53.53 0 00-.47-.34l-1.06-.07a.55.55 0 01-.5-.52l-.07-1.08a.53.53 0 00-.34-.47l-1-.4a.57.57 0 01-.33-.65l.27-1.05a.56.56 0 00-.18-.56l-.82-.69a.56.56 0 01-.11-.72l.57-.91a.57.57 0 000-.59l-.57-.92a.55.55 0 01.11-.71l.82-.69a.57.57 0 00.18-.56l-.27-1.05a.57.57 0 01.33-.65l1-.4a.55.55 0 00.34-.48l.07-1.08a.55.55 0 01.5-.51l1.06-.07a.54.54 0 00.47-.35l.39-1a.53.53 0 01.63-.33l1 .27a.54.54 0 00.55-.19l.67-.83a.54.54 0 01.71-.11l.89.58a.55.55 0 00.58 0l.89-.58a.54.54 0 01.71.11l.67.83a.54.54 0 00.55.19l1-.27a.53.53 0 01.63.33l.4 1a.53.53 0 00.46.35l1.06.07a.54.54 0 01.5.51l.07 1.08a.57.57 0 00.34.48l1 .4a.56.56 0 01.33.65l-.26 1.05a.57.57 0 00.18.56l.81.69a.54.54 0 01.11.71l-.56.92a.53.53 0 000 .59m11.46-1.4A20.68 20.68 0 10427.93 280a21 21 0 0021.72-22.19M462 300.6a8.44 8.44 0 01-5.72 1.24 4.32 4.32 0 00.85-4.66l-1.27-2.11-.15-.26c-.16-.25-.44-.73-1-1.6a4.12 4.12 0 00-4.46-1.34 8.72 8.72 0 013.68-4.64 7.9 7.9 0 0111.08 2.26A8.27 8.27 0 01462 300.6m6.69-13.6a20.49 20.49 0 00-28.51-7 21.42 21.42 0 00-6.83 29.1 20.49 20.49 0 0028.51 7 21.43 21.43 0 006.83-29.1" transform="translate(-386 -237.83)" fill="#fff"/><path class="cls-4" d="M401.35 301.81c-.13-.2-.25-.42-.36-.63a6.63 6.63 0 015.74-9.69 6.43 6.43 0 015.14 2.59l.23.33c.09.13.17.26.25.4a6.68 6.68 0 01.86 3.3 6.55 6.55 0 01-6.48 6.62 6.42 6.42 0 01-5.15-2.6c-.08-.11-.16-.21-.23-.32m5.38-24.81A21 21 0 00386 298.11 20.73 20.73 0 10406.73 277" transform="translate(-386 -237.83)"/><path class="cls-6" d="M497.65 266.24a7 7 0 01-5 1.86h-6.86v-20h6.86a7 7 0 015 1.85c2.08 2.08 2 5.14 2 7.92s.08 6.29-2 8.37zm-1.49-14.77a5.2 5.2 0 00-3.93-1.46h-4.35v16.18h4.35a5.23 5.23 0 003.93-1.46c1.38-1.44 1.32-4.41 1.32-6.86s.06-4.97-1.32-6.4zm19.89 16.63l-1.6-4.52h-8.73l-1.6 4.52h-2.28l7.36-20h1.8l7.33 20zm-5.92-16.94l-3.77 10.56h7.48zm24.19 16.94l-10.62-16v16h-2.14v-20h2l10.61 16v-16h2.14v20zm12.95.17a8.71 8.71 0 01-6.85-2.64l1.46-1.47a6.86 6.86 0 005.45 2.2c2.92 0 4.72-1.38 4.72-3.71a3.21 3.21 0 00-1-2.5 4.36 4.36 0 00-2.61-1l-2.33-.36a7.29 7.29 0 01-3.68-1.52 4.73 4.73 0 01-1.52-3.74c0-3.39 2.44-5.64 6.41-5.64a8 8 0 015.95 2.19l-1.38 1.38a6.26 6.26 0 00-4.66-1.72c-2.67 0-4.21 1.49-4.21 3.71a2.87 2.87 0 00.9 2.3 5.64 5.64 0 002.69 1.1l2.19.34a6.46 6.46 0 013.66 1.4 5 5 0 011.68 4c.04 3.51-2.71 5.68-6.87 5.68zm23.82-.17L565 257.45l-4.22 5.06v5.59h-2.13v-20h2.13v11.49l9.33-11.49h2.61l-6.29 7.72 7.19 12.28z" transform="translate(-386 -237.83)"/><path class="cls-4" d="M497.09 293.34l-4.44-8.89h-4v8.89h-3.2v-21.1h8.18c4 0 6.55 2.58 6.55 6.16A5.55 5.55 0 01496 284l4.86 9.33zm-3.7-18.22h-4.75v6.6h4.75c2.13 0 3.58-1.21 3.58-3.29s-1.45-3.31-3.58-3.31zm11.47 18.22v-21.1h13.48v2.88h-10.28v6.16h8.77v2.84h-8.77v6.35h10.28v2.87zm26.01-18.22v18.22h-3.2v-18.22h-5.81v-2.88h14.82v2.88zm16.68 18.4c-4.29 0-7.55-2.94-7.55-7.29v-14h3.2v13.84c0 2.81 1.72 4.56 4.35 4.56a4.19 4.19 0 004.39-4.56v-13.83h3.2v14c0 4.34-3.29 7.28-7.59 7.28zm22.45-.18l-4.44-8.89h-4v8.89h-3.2v-21.1h8.18c4 0 6.55 2.58 6.55 6.16a5.55 5.55 0 01-4.21 5.61l4.86 9.33zm-3.7-18.22h-4.74v6.6h4.74c2.13 0 3.59-1.21 3.59-3.29s-1.49-3.31-3.62-3.31z" transform="translate(-386 -237.83)"/><path class="cls-6" d="M490.24 315.92a8 8 0 01-6.24-2.42l1.33-1.33a6.32 6.32 0 005 2c2.68 0 4.32-1.26 4.32-3.39a3 3 0 00-.87-2.29 4 4 0 00-2.39-.87l-2.14-.34a6.61 6.61 0 01-3.37-1.39 4.33 4.33 0 01-1.38-3.42c0-3.11 2.23-5.16 5.86-5.16a7.36 7.36 0 015.45 2l-1.26 1.26a5.76 5.76 0 00-4.27-1.57c-2.44 0-3.86 1.37-3.86 3.4a2.6 2.6 0 00.83 2.1 5.26 5.26 0 002.47 1l2 .31a5.83 5.83 0 013.28 1.29 4.57 4.57 0 011.55 3.63c.02 3.21-2.5 5.19-6.31 5.19zm14.89-7.71v7.56h-1.95v-7.56l-5.46-10.75h2.11l4.32 8.77 4.27-8.77h2.11zm12.96 7.71a8 8 0 01-6.27-2.42l1.33-1.33a6.31 6.31 0 005 2c2.68 0 4.32-1.26 4.32-3.39a3 3 0 00-.87-2.29 4 4 0 00-2.4-.87l-2.13-.34a6.61 6.61 0 01-3.37-1.39 4.34 4.34 0 01-1.39-3.42c0-3.11 2.24-5.16 5.87-5.16a7.36 7.36 0 015.45 2l-1.26 1.26a5.76 5.76 0 00-4.27-1.57c-2.44 0-3.86 1.37-3.86 3.4a2.6 2.6 0 00.83 2.1 5.26 5.26 0 002.46 1l2 .31a5.83 5.83 0 013.34 1.28 4.6 4.6 0 011.54 3.63c0 3.22-2.52 5.2-6.32 5.2zm15.79-16.71v16.56h-2v-16.56h-5.29v-1.75h12.54v1.75zm8.72 16.56v-18.31H554v1.75h-9.41v6.45h8v1.75h-8V314H554v1.75zm29.16 0v-13.91l-5 11h-1.67l-5.09-11v13.91h-2v-18.31h2l6 13 5.82-13h2v18.31z" transform="translate(-386 -237.83)"/></svg>