<svg xmlns="http://www.w3.org/2000/svg" viewBox="0 0 1305.38 937.82">
  <defs>
    <style>
      .a {
        fill: #62a700;
      }

      .b {
        fill: #ddd;
      }

      .c {
        fill: #d1d1d1;
      }

      .d {
        fill: #c1c1c1;
      }

      .e {
        fill: #fc5b58;
      }

      .f {
        fill: #ede8e2;
      }

      .g {
        font-size: 17.42px;
        font-family: HiraMaruPro-W4, HiraMaruPro W4-83pv-RKSJ-H;
        letter-spacing: -0.04em;
      }
    </style>
  </defs>
  <g>
    <path class="a" d="M1305,446.36c3.54,114.81-19.72,218.22-95.08,258.84-74.59,41.26-199.87,19.59-277.19,48.34S826.7,860.67,767.11,902.48c-59,41-149.57,44.87-262.49,19.06-114.33-25.67-251.74-81.62-355.84-199.37C44.06,605.2-26.72,425.65,9.65,271.09,46.65,115.76,190.17-13.8,345.32,1.18,499.06,16.31,663.81,176.74,814.15,213.55s286.25-50,370.16-29.66S1300.72,330.92,1305,446.36Z"/>
    <g>
      <g>
        <path class="b" d="M705.48,92.81H565.54c-4.84,0-17.22,20.72-17.22,25.83v386c0,6.94,11.3,27.77,17.22,27.77H705.48c4.85,0,17.23-22.28,17.23-27.77v-386C722.71,112.18,711.4,92.81,705.48,92.81Z"/>
        <path class="c" d="M635.51,532.37h70c4.85,0,17.23-22.28,17.23-27.77v-386c0-6.46-11.31-25.83-17.23-25.83h-70Z"/>
        <rect class="c" x="561.24" y="79.71" width="148.55" height="15.07" rx="1.67"/>
        <path class="d" d="M635.51,94.78h66.74a7.56,7.56,0,0,0,7.54-7.54h0a7.56,7.56,0,0,0-7.54-7.53H635.51Z"/>
        <rect class="e" x="548.32" y="122.74" width="174.39" height="378.69"/>
      </g>
      <g>
        <rect class="f" x="567.86" y="387.83" width="134.99" height="39.19" rx="5.4"/>
        <ellipse class="f" cx="635.35" cy="346.46" rx="60.96" ry="52.25"/>
        <circle cx="591.81" cy="407.42" r="8.71"/>
        <circle cx="613.58" cy="407.42" r="8.71"/>
        <circle cx="635.35" cy="407.42" r="8.71"/>
        <circle cx="657.13" cy="407.42" r="8.71"/>
        <circle cx="678.9" cy="407.42" r="8.71"/>
        <text class="g" transform="translate(605.9 354.1) rotate(-7)">Pant C</text>
        <g>
          <path d="M610.66,361.53a34.9,34.9,0,0,1-7.34-7.47,12.55,12.55,0,0,1-2.27-4.69,20.28,20.28,0,0,1-.26-5.34c.39-7,4.76-13.65,10.62-17.3a16.67,16.67,0,0,1,11.18-2.62,3.38,3.38,0,0,0,4-2.28c.42-1.56-.53-3.74-2.28-4-9.69-1.54-18.49,3.2-24.29,10.78A27.26,27.26,0,0,0,594.45,342c-.57,4.64-.28,9.64,2.15,13.76a40.59,40.59,0,0,0,10.76,11.44c1.42,1.06,3.65.23,4.47-1.17a3.34,3.34,0,0,0-1.17-4.47Z"/>
          <path d="M623.55,309.38a119.69,119.69,0,0,1-4.1,23.83c-1.12,4.05,5.18,5.79,6.3,1.73a128.64,128.64,0,0,0,4.33-25.56,3.27,3.27,0,1,0-6.53,0Z"/>
          <path d="M625.5,337.35a137.87,137.87,0,0,1,24.13-12.11,3.36,3.36,0,0,0,2.28-4,3.29,3.29,0,0,0-4-2.28,147.21,147.21,0,0,0-25.7,12.77,3.27,3.27,0,0,0,3.3,5.64Z"/>
          <path d="M651,319q-11.24-6-22.09-12.73a3.27,3.27,0,0,0-3.3,5.64q10.86,6.69,22.1,12.73A3.26,3.26,0,1,0,651,319Z"/>
          <path d="M625.66,314.31c-.1,2.18-.24,4.36-.45,6.54-.1,1.06-.22,2.13-.35,3.19,0,.27-.06.53-.1.8s0,.26,0,.39c0-.38.06-.45,0-.2-.08.57-.16,1.15-.25,1.72a3.36,3.36,0,0,0,1.17,3.43,3.24,3.24,0,0,0,3.63.26c2.08-1.48,4.13-3,6.32-4.34.5-.3,1-.59,1.53-.86.28-.14.55-.28.83-.4l.43-.19-.15.06c.58-.2,1.15-.41,1.75-.56.3-.08.59-.14.9-.2l.45-.07q-.74.09-.18,0a3.36,3.36,0,0,0,3.15-2.4,3.44,3.44,0,0,0-1.5-3.68,21.69,21.69,0,0,0-7.93-3.31,10.5,10.5,0,0,0-2.46-.48,3.56,3.56,0,0,0-3.5,3.53,8.81,8.81,0,0,0,0,.89c0,.4.14-.61,0-.22,0,.13,0,.28-.09.42s-.12.51-.17.51.36-.64.06-.19c-.09.15-.19.3-.28.46-.19.35.51-.6,0-.08a3.27,3.27,0,1,0,4.62,4.62,9.09,9.09,0,0,0,1.94-3.28,8.79,8.79,0,0,0,.35-1.92c0-.18,0-.35,0-.53s0-.22,0-.33c0-.65-.15-.3-.38,1.07l-2,1.5.15,0h-1.74a26.15,26.15,0,0,1,4.44,1.17c.36.12.71.26,1.06.39s-.72-.34,0,0l.51.24a12.55,12.55,0,0,1,2,1.24l1.65-6.09a20.72,20.72,0,0,0-8.45,2.84c-2.35,1.36-4.52,3-6.73,4.58l4.8,3.69a137.5,137.5,0,0,0,1.4-14.18,3.29,3.29,0,0,0-3.26-3.27,3.34,3.34,0,0,0-3.27,3.27Z"/>
        </g>
        <g>
          <path d="M658.43,329.68a34.9,34.9,0,0,1,7.34,7.47,12.62,12.62,0,0,1,2.27,4.69,20.3,20.3,0,0,1,.26,5.34c-.39,7-4.76,13.66-10.62,17.31a16.67,16.67,0,0,1-11.18,2.62,3.36,3.36,0,0,0-4,2.28c-.42,1.55.53,3.74,2.28,4,9.69,1.53,18.49-3.2,24.29-10.79a27.26,27.26,0,0,0,5.59-13.38c.57-4.64.28-9.64-2.15-13.75A40.39,40.39,0,0,0,661.72,324c-1.41-1.06-3.65-.23-4.46,1.17a3.34,3.34,0,0,0,1.17,4.47Z"/>
          <path d="M645.54,381.83a119.47,119.47,0,0,1,4.1-23.82c1.12-4.06-5.18-5.79-6.3-1.74A128.76,128.76,0,0,0,639,381.83a3.27,3.27,0,1,0,6.53,0Z"/>
          <path d="M643.59,353.87A138.53,138.53,0,0,1,619.46,366a3.37,3.37,0,0,0-2.29,4c.44,1.58,2.37,2.92,4,2.28a146.46,146.46,0,0,0,25.7-12.76,3.34,3.34,0,0,0,1.17-4.47,3.3,3.3,0,0,0-4.47-1.17Z"/>
          <path d="M618.05,372.2q11.25,6,22.1,12.73a3.27,3.27,0,1,0,3.3-5.64q-10.86-6.69-22.1-12.73a3.35,3.35,0,0,0-4.47,1.18,3.31,3.31,0,0,0,1.17,4.46Z"/>
          <path d="M643.43,376.91c.1-2.19.24-4.37.45-6.54.1-1.07.22-2.13.35-3.2,0-.26.06-.53.1-.79s0-.27,0-.4c0,.38-.06.45,0,.2.08-.57.16-1.14.25-1.72a3.36,3.36,0,0,0-1.17-3.43,3.24,3.24,0,0,0-3.63-.26c-2.08,1.49-4.13,3-6.32,4.35-.5.3-1,.58-1.53.85l-.83.41-.43.19c.43-.18.48-.2.15-.07a17.81,17.81,0,0,1-1.75.56,9,9,0,0,1-.9.2l-.45.08c.49-.07.55-.08.18,0a3.38,3.38,0,0,0-3.15,2.4,3.45,3.45,0,0,0,1.5,3.69,21.86,21.86,0,0,0,7.93,3.31,11,11,0,0,0,2.46.48,3.57,3.57,0,0,0,3.5-3.54,8.81,8.81,0,0,0,0-.89c0-.39-.14.61,0,.23,0-.14.06-.28.1-.42s.12-.52.17-.52-.36.65-.06.2l.28-.46c.19-.35-.51.59,0,.07a3.27,3.27,0,1,0-4.62-4.62,9.18,9.18,0,0,0-1.94,3.28,9,9,0,0,0-.35,1.92,4.89,4.89,0,0,0,0,.54c0,.11,0,.21,0,.32,0,.66.15.3.38-1.07l2-1.5-.15,0h1.74a26.15,26.15,0,0,1-4.44-1.17c-.36-.12-.71-.26-1.06-.39s.72.35.05,0l-.51-.24a13.26,13.26,0,0,1-2-1.23l-1.65,6.08a20.72,20.72,0,0,0,8.45-2.84c2.35-1.36,4.52-3,6.73-4.58l-4.8-3.68a137.5,137.5,0,0,0-1.4,14.18,3.28,3.28,0,0,0,3.26,3.26,3.33,3.33,0,0,0,3.27-3.26Z"/>
        </g>
      </g>
    </g>
  </g>
</svg>
