<svg xmlns="http://www.w3.org/2000/svg" viewBox="0 0 1193.38 783.29">
  <defs>
    <style>
      .a {
        fill: #009ddd;
      }

      .b {
        fill: #ddd;
      }

      .c {
        fill: #d1d1d1;
      }

      .d {
        fill: #fc5b58;
      }

      .e {
        fill: #6b503f;
      }

      .f {
        fill: #4c372d;
      }

      .g {
        fill: #e24d4d;
      }

      .h {
        fill: #ede8e2;
      }

      .i {
        font-size: 14.52px;
        font-family: HiraMaruPro-W4, HiraMaruPro W4-83pv-RKSJ-H;
        letter-spacing: -0.04em;
      }
    </style>
  </defs>
  <g>
    <path class="a" d="M344.8,692.6c-100.78-29.14-240.88-73-305-164.67-63.48-91.51-50.89-231.45,37.34-288.4C165.45,181.9,329.44,207.26,445,185c116.22-22.15,184.53-91.14,273.5-116,88.84-24.14,199.7-3.88,286.81,58.4,87,63,150.35,167.24,176.07,283.37,25.6,116.82,12.89,245.37-62.52,310.26-76.11,64.77-214.91,65.88-316.93,60-102.15-5.22-167.4-18.15-231-32.21C507.81,735.56,446.26,721.86,344.8,692.6Z"/>
    <g>
      <g>
        <path class="b" d="M722.69,194.45c0-2,4.95-8.7,4.95-12.87,0-43.55-22.3-80.28-46.2-97.66-21.77-15.84-21.11-48.83-21.11-48.83H609.85s0,34-21.12,48.83c-24.17,17-46.19,54.11-46.19,97.66,0,4.17,5,10.83,5,12.87V385.26c0,4.21-5,8.4-5,12.55V530.66s8.36,40.91,37.83,40.91c19.36,0,31.84.48,54.71.48s35.37-.48,54.72-.48c29.48,0,37.84-40.91,37.84-40.91V397.81c0-4.15-4.95-8.34-4.95-12.55Z"/>
        <path class="c" d="M722.69,194.45c0-2,4.95-8.7,4.95-12.87,0-43.55-22.3-80.28-46.2-97.66-21.77-15.84-21.11-48.83-21.11-48.83H634.16v537c22.88,0,36.29-.48,55.64-.48,29.48,0,37.84-40.91,37.84-40.91V397.81c0-4.15-4.95-8.34-4.95-12.55Z"/>
        <rect class="d" x="547.49" y="198.27" width="175.2" height="181.91"/>
        <g>
          <path class="e" d="M635.09,190.37h77c0-1.22,4.93-7.3,4.93-12s1.84-16.38-8.61-43.78-27-37.71-29.89-40.95S665,86,658.82,70.43c-3.07-7.3-2.91-10-2.91-10H614.26s.17,2.66-2.9,10c-6.14,15.61-16.83,20-19.7,23.25s-19.43,13.54-29.88,40.95-8.62,39.12-8.62,43.78,4.93,10.74,4.93,12Z"/>
          <path class="f" d="M635.09,190.37h77c0-1.22,4.93-7.3,4.93-12s1.84-16.38-8.61-43.78-27-37.71-29.89-40.95S665,86,658.82,70.43c-3.07-7.3-2.91-10-2.91-10H635.09Z"/>
        </g>
        <rect class="d" x="601.36" width="66.89" height="46.42" rx="3.09"/>
        <rect class="d" x="601.36" y="44.37" width="66.89" height="9.04" rx="1.4"/>
        <path class="g" d="M634.81,46.42H660.6a7.66,7.66,0,0,0,7.66-7.66V7.65A7.66,7.66,0,0,0,660.6,0H634.81Z"/>
        <path class="g" d="M634.81,53.41h29.48a4,4,0,0,0,4-4V48.33a4,4,0,0,0-4-4H634.81Z"/>
        <g>
          <path class="e" d="M558.28,389.76c0,3.25-6.17,11-6.17,14.29V529.77s10.4,34.1,28.91,34.1h54.07V389.76Z"/>
          <path class="f" d="M711.89,389.76h-76.8V563.87h54.06c18.52,0,28.91-34.1,28.91-34.1V404.05C718.06,400.8,711.89,393,711.89,389.76Z"/>
        </g>
      </g>
      <g>
        <rect class="h" x="577.17" y="312.93" width="112.49" height="32.66" rx="5.4"/>
        <ellipse class="h" cx="633.42" cy="278.46" rx="50.8" ry="43.55"/>
        <circle cx="597.13" cy="329.26" r="7.26"/>
        <circle cx="615.27" cy="329.26" r="7.26"/>
        <circle cx="633.42" cy="329.26" r="7.26"/>
        <circle cx="651.56" cy="329.26" r="7.26"/>
        <circle cx="669.71" cy="329.26" r="7.26"/>
        <text class="i" transform="translate(608.9 284.82) rotate(-7)">Pant B</text>
        <g>
          <path d="M612.84,291c-2.86-2.15-6.05-5.17-7.51-8.5s-.93-8,.4-11.32c2.65-6.48,9.67-12.52,17-11.37a2.81,2.81,0,0,0,3.35-1.9,2.74,2.74,0,0,0-1.9-3.35c-8.08-1.26-15.42,2.66-20.25,9a22.31,22.31,0,0,0-4.58,10.61c-.54,4-.4,8.37,1.71,12a33.84,33.84,0,0,0,9,9.56,2.74,2.74,0,0,0,3.72-1,2.79,2.79,0,0,0-1-3.72Z"/>
          <path d="M623.58,247.56a100.43,100.43,0,0,1-3.41,19.85c-.94,3.39,4.31,4.83,5.25,1.45a107.55,107.55,0,0,0,3.6-21.3,2.72,2.72,0,1,0-5.44,0Z"/>
          <path d="M625.2,270.86a116.46,116.46,0,0,1,20.12-10.09,2.79,2.79,0,0,0,1.9-3.34,2.74,2.74,0,0,0-3.35-1.9,122.32,122.32,0,0,0-21.41,10.63,2.78,2.78,0,0,0-1,3.73,2.74,2.74,0,0,0,3.72,1Z"/>
          <path d="M646.49,255.58q-9.37-5-18.42-10.61a2.72,2.72,0,0,0-2.74,4.7q9,5.58,18.41,10.61a2.72,2.72,0,0,0,2.75-4.7Z"/>
          <path d="M625.34,251.66c-.08,1.82-.2,3.64-.38,5.45-.08.89-.18,1.78-.28,2.66l-.09.67c0,.11,0,.22,0,.33,0-.32.05-.38,0-.17-.06.48-.13,1-.2,1.43a2.79,2.79,0,0,0,1,2.86,2.71,2.71,0,0,0,3,.22c1.73-1.24,3.44-2.53,5.26-3.62.42-.25.85-.49,1.28-.71l.69-.34.35-.16c-.35.15-.39.17-.11.06a12.26,12.26,0,0,1,1.45-.47c.25-.07.5-.12.75-.17l.38-.06q-.61.08-.15,0a2.81,2.81,0,0,0,2.62-2,2.88,2.88,0,0,0-1.25-3.07,18.12,18.12,0,0,0-6.61-2.76,9,9,0,0,0-2-.4,3,3,0,0,0-2.92,2.94c0,.24,0,.51,0,.75s.12-.51,0-.19c0,.11,0,.23-.08.35s-.1.43-.14.43.3-.54.05-.16c-.08.12-.16.25-.23.38-.16.29.42-.49,0-.06a2.72,2.72,0,1,0,3.85,3.85,7.52,7.52,0,0,0,1.61-2.74,7.18,7.18,0,0,0,.3-1.6c0-.14,0-.29,0-.44v-.27c0-.55-.13-.25-.32.89l-1.63,1.25.12,0h-1.44a22.67,22.67,0,0,1,3.7,1l.88.32c.35.13-.6-.28,0,0l.42.2a9.87,9.87,0,0,1,1.67,1l1.38-5.07a17.24,17.24,0,0,0-7,2.36c-2,1.13-3.76,2.51-5.6,3.82l4,3.07a114.22,114.22,0,0,0,1.16-11.82,2.74,2.74,0,0,0-2.72-2.72,2.78,2.78,0,0,0-2.72,2.72Z"/>
        </g>
        <g>
          <path d="M652.65,264.48c2.86,2.15,6.05,5.16,7.51,8.5s.93,8-.4,11.31c-2.65,6.49-9.67,12.52-17,11.37a2.82,2.82,0,0,0-3.35,1.9,2.73,2.73,0,0,0,1.9,3.35c8.08,1.26,15.42-2.66,20.25-9a22.39,22.39,0,0,0,4.58-10.62c.54-4,.4-8.37-1.71-12a33.67,33.67,0,0,0-9-9.55,2.73,2.73,0,0,0-3.72,1,2.8,2.8,0,0,0,1,3.73Z"/>
          <path d="M641.91,307.94a100.53,100.53,0,0,1,3.41-19.86c.94-3.38-4.31-4.82-5.25-1.45a107.65,107.65,0,0,0-3.6,21.31,2.72,2.72,0,0,0,5.44,0Z"/>
          <path d="M640.29,284.63a115.05,115.05,0,0,1-20.12,10.09,2.8,2.8,0,0,0-1.9,3.35,2.74,2.74,0,0,0,3.35,1.9A123.07,123.07,0,0,0,643,289.33a2.72,2.72,0,0,0-2.74-4.7Z"/>
          <path d="M619,299.91q9.38,5,18.42,10.61a2.72,2.72,0,1,0,2.74-4.7q-9-5.58-18.41-10.61a2.78,2.78,0,0,0-3.72,1,2.74,2.74,0,0,0,1,3.72Z"/>
        </g>
      </g>
    </g>
  </g>
</svg>
