<?xml version="1.0" encoding="utf-8"?>
<!-- Generator: Adobe Illustrator 24.3.0, SVG Export Plug-In . SVG Version: 6.00 Build 0)  -->
<svg version="1.1" id="Layer_1" xmlns="http://www.w3.org/2000/svg" xmlns:xlink="http://www.w3.org/1999/xlink" x="0px" y="0px"
	 viewBox="0 0 594.4 484.6" style="enable-background:new 0 0 594.4 484.6;" xml:space="preserve">
<style type="text/css">
	.st0{fill:#009DDD;}
	.st1{fill:#9E9E9E;stroke:#D6D6D6;stroke-width:6;stroke-linecap:round;stroke-linejoin:round;}
	.st2{fill:#F1F1F1;}
	.st3{opacity:0.7;}
	.st4{fill:none;stroke:#000000;stroke-width:0.75;stroke-miterlimit:10;}
	.st5{fill:none;stroke:#000000;stroke-width:0.75;stroke-miterlimit:10;stroke-dasharray:12.37,12.37;}
	.st6{opacity:0.35;}
	.st7{font-family:'ArialMT';}
	.st8{font-size:12px;}
	.st9{letter-spacing:-2;}
	.st10{letter-spacing:33;}
	.st11{letter-spacing:1;}
</style>
<g>
	<path class="st0" d="M573.3,365.1c-36.3,39.8-124.4,42.5-191.1,59.3c-66.8,16.3-112.2,46.6-168.1,56.8
		c-55.6,9.8-121.3-0.5-149.7-40c-28.5-39.9-19.2-109.1-30.3-174.4C22.9,201.2-8.6,139.5,2.2,88.6s64.3-91.3,118-88.4
		c53.4,3.4,107,50.4,159.2,65.9c52.3,15.9,102.7,0,152.6,12.3c49.5,11.9,98.6,51.9,130.4,110.6C594.6,247.5,609.5,324.9,573.3,365.1
		z"/>
	<rect x="195.6" y="68" class="st1" width="231.1" height="18.7"/>
	<g>
		<path class="st2" d="M233.6,73.4v240.5c0,0-0.4,6.3,5.8,6.1s5-4.5,9.5-2.7s6.5,1.3,6.5,1.3s4.7,1.1,5.4,0s5.2-2.9,7-2
			s4,2.2,5.8,2.2c5.1,0,6.3-4.5,11.3-0.7c0,0,3.4,2.7,5.4,0.2s7-0.7,7-0.7c2.8,1,5.2,2.1,7.9,0.9c1.6-0.7,2-1.8,4.2-0.9
			c1.5,1.4,3.8,1.3,5.2-0.2c2.9-2.5,8.1-0.9,8.1-0.9s7.4,4,9.2,1.1s9.5-1.3,9.5-1.3s5.2,4,8.8,1.3c2.3-1.6,5.2-2.1,7.9-1.3
			c1.7,0.4,3.3,1,4.7,2c2,1.4,6.8-1.4,6.8-1.4s4.7-2.2,7.6,0c2,1.3,4.3,2,6.7,1.8l4.9-2.5V73.4c-1.4-0.4-2.9,0-4,1
			c-2.2,1.7-6.7-1.1-6.7-1.1s-5.3-3-9.4,0c-2.3,1.8-5.4,2-7.9,0.6c-3.4-1.9-7.5-1.9-10.8,0.2c0,0-3.8,1.4-5.8,0
			c-1.7-1-3.6-1.8-5.5-2.2c-2.5,0-4.9,0.7-7,2c-3.4,2.2-7.9-1-7.9-1s-6.7-2.6-9.1,0.7s-8.4-1.7-8.4-1.7s-7.7-1.4-9.1,1.7
			s-8.6,0-8.6,0s-6.7-4.1-11.8,1c-1.3,1.3-4.4-0.5-5.6-1.1c-1.8-1.1-3.9-1.7-6-1.9c-1.5-0.1-4.1,2.4-5.6,2.9c-2,0.6-4.1,0.4-5.9-0.4
			c0,0-6.7-3.8-10.1-0.7S233.6,73.4,233.6,73.4z"/>
		<g class="st3">
			<g>
				<line class="st4" x1="247.3" y1="94.3" x2="253.3" y2="94.3"/>
				<line class="st5" x1="265.6" y1="94.3" x2="358.4" y2="94.3"/>
				<line class="st4" x1="364.6" y1="94.3" x2="370.6" y2="94.3"/>
			</g>
		</g>
		<g class="st3">
			<g>
				<line class="st4" x1="247.3" y1="119.5" x2="253.3" y2="119.5"/>
				<line class="st5" x1="265.6" y1="119.5" x2="358.4" y2="119.5"/>
				<line class="st4" x1="364.6" y1="119.5" x2="370.6" y2="119.5"/>
			</g>
		</g>
		<g class="st6">
			<g>
				<line class="st4" x1="247.3" y1="165.4" x2="253.3" y2="165.4"/>
				<line class="st5" x1="265.6" y1="165.4" x2="358.4" y2="165.4"/>
				<line class="st4" x1="364.6" y1="165.4" x2="370.6" y2="165.4"/>
			</g>
		</g>
		<g class="st6">
			<g>
				<line class="st4" x1="247.3" y1="236.5" x2="253.3" y2="236.5"/>
				<line class="st5" x1="265.6" y1="236.5" x2="358.4" y2="236.5"/>
				<line class="st4" x1="364.6" y1="236.5" x2="370.6" y2="236.5"/>
			</g>
		</g>
		<g class="st6">
			<g>
				<line class="st4" x1="247.3" y1="272.8" x2="253.3" y2="272.8"/>
				<line class="st5" x1="265.6" y1="272.8" x2="358.4" y2="272.8"/>
				<line class="st4" x1="364.6" y1="272.8" x2="370.6" y2="272.8"/>
			</g>
		</g>
		<text transform="matrix(1 0 0 1 243.8471 111.8237)" class="st7 st8">DANSK RETURSYSTEM</text>
		<text transform="matrix(1 0 0 1 245.5 188.13)" class="st7 st8">1: 0275</text>
		<text transform="matrix(1 0 0 1 281.31 188.13)" class="st7 st8 st9"> </text>
		<text transform="matrix(1 0 0 1 281.5 188.13)" class="st7 st8 st10">  </text>
		<text transform="matrix(1 0 0 1 353.5 188.13)" class="st7 st8">1.50</text>
		<text transform="matrix(1 0 0 1 245.5 202.53)" class="st7 st8">2: 1227</text>
		<text transform="matrix(1 0 0 1 281.31 202.53)" class="st7 st8 st9"> </text>
		<text transform="matrix(1 0 0 1 281.5 202.53)" class="st7 st8 st10">  </text>
		<text transform="matrix(1 0 0 1 353.5 202.53)" class="st7 st8">2.00</text>
		<text transform="matrix(1 0 0 1 245.5 216.93)" class="st7 st8">3: 0942</text>
		<text transform="matrix(1 0 0 1 281.31 216.93)" class="st7 st8 st9"> </text>
		<text transform="matrix(1 0 0 1 281.5 216.93)" class="st7 st8 st10">  </text>
		<text transform="matrix(1 0 0 1 353.5 216.93)" class="st7 st8">3.00</text>
		<text transform="matrix(1 0 0 1 245.99 259.63)" class="st7 st8">T</text>
		<text transform="matrix(1 0 0 1 251.63 259.63)" class="st7 st8">O</text>
		<text transform="matrix(1 0 0 1 259.6 259.63)" class="st7 st8">T</text>
		<text transform="matrix(1 0 0 1 264.66 259.63)" class="st7 st8">AL</text>
		<text transform="matrix(1 0 0 1 277.67 259.63)" class="st7 st8 st11"> </text>
		<text transform="matrix(1 0 0 1 281.99 259.63)" class="st7 st8 st10">  </text>
		<text transform="matrix(1 0 0 1 353.99 259.63)" class="st7 st8">6.50</text>
		<text transform="matrix(1 0 0 1 286.58 296.13)" class="st7 st8">T</text>
		<text transform="matrix(1 0 0 1 292.46 296.13)" class="st7 st8">hank </text>
		<text transform="matrix(1 0 0 1 319.74 296.13)" class="st7 st8">y</text>
		<text transform="matrix(1 0 0 1 325.27 296.13)" class="st7 st8">ou!</text>
	</g>
</g>
</svg>
